<svg width="47" height="47" viewBox="0 0 47 47" fill="none" xmlns="http://www.w3.org/2000/svg">
<path d="M15.275 3.9165H31.725C37.9917 3.9165 43.0834 9.00817 43.0834 15.2748V31.7248C43.0834 34.7373 41.8867 37.6263 39.7566 39.7564C37.6265 41.8865 34.7374 43.0832 31.725 43.0832H15.275C9.00835 43.0832 3.91669 37.9915 3.91669 31.7248V15.2748C3.91669 12.2624 5.11337 9.37338 7.24347 7.24328C9.37357 5.11318 12.2626 3.9165 15.275 3.9165ZM14.8834 7.83317C13.0136 7.83317 11.2204 8.57594 9.89825 9.89807C8.57612 11.2202 7.83335 13.0134 7.83335 14.8832V32.1165C7.83335 36.0136 10.9863 39.1665 14.8834 39.1665H32.1167C33.9865 39.1665 35.7797 38.4237 37.1018 37.1016C38.4239 35.7795 39.1667 33.9863 39.1667 32.1165V14.8832C39.1667 10.9861 36.0138 7.83317 32.1167 7.83317H14.8834ZM33.7813 10.7707C34.4305 10.7707 35.0531 11.0286 35.5122 11.4876C35.9713 11.9467 36.2292 12.5694 36.2292 13.2186C36.2292 13.8678 35.9713 14.4905 35.5122 14.9495C35.0531 15.4086 34.4305 15.6665 33.7813 15.6665C33.132 15.6665 32.5094 15.4086 32.0503 14.9495C31.5913 14.4905 31.3334 13.8678 31.3334 13.2186C31.3334 12.5694 31.5913 11.9467 32.0503 11.4876C32.5094 11.0286 33.132 10.7707 33.7813 10.7707ZM23.5 13.7082C26.0969 13.7082 28.5875 14.7398 30.4238 16.5761C32.2601 18.4124 33.2917 20.9029 33.2917 23.4998C33.2917 26.0967 32.2601 28.5873 30.4238 30.4236C28.5875 32.2599 26.0969 33.2915 23.5 33.2915C20.9031 33.2915 18.4126 32.2599 16.5763 30.4236C14.74 28.5873 13.7084 26.0967 13.7084 23.4998C13.7084 20.9029 14.74 18.4124 16.5763 16.5761C18.4126 14.7398 20.9031 13.7082 23.5 13.7082ZM23.5 17.6248C21.9419 17.6248 20.4475 18.2438 19.3458 19.3456C18.244 20.4474 17.625 21.9417 17.625 23.4998C17.625 25.058 18.244 26.5523 19.3458 27.6541C20.4475 28.7559 21.9419 29.3748 23.5 29.3748C25.0582 29.3748 26.5525 28.7559 27.6543 27.6541C28.7561 26.5523 29.375 25.058 29.375 23.4998C29.375 21.9417 28.7561 20.4474 27.6543 19.3456C26.5525 18.2438 25.0582 17.6248 23.5 17.6248Z" fill="white"/>
</svg>
