<svg width="55" height="55" viewBox="0 0 55 55" fill="none" xmlns="http://www.w3.org/2000/svg">
<g clip-path="url(#clip0_74_327)">
<path d="M27.5 9.1665C29.4594 9.1665 31.4691 9.21692 33.4171 9.29942L35.7179 9.40942L37.9202 9.54005L39.9827 9.67984L41.8664 9.8265C43.9107 9.98297 45.8343 10.8553 47.2989 12.2901C48.7635 13.7249 49.6751 15.6302 49.8735 17.6709L49.9652 18.6448L50.1371 20.7303C50.2975 22.8913 50.4166 25.2471 50.4166 27.4998C50.4166 29.7525 50.2975 32.1084 50.1371 34.2694L49.9652 36.3548C49.9354 36.6894 49.9056 37.0125 49.8735 37.3288C49.675 39.3698 48.7631 41.2754 47.298 42.7102C45.833 44.1451 43.9088 45.0172 41.8641 45.1732L39.985 45.3175L37.9225 45.4596L35.7179 45.5902L33.4171 45.7002C31.4458 45.7859 29.4731 45.8302 27.5 45.8332C25.5269 45.8302 23.5541 45.7859 21.5829 45.7002L19.2821 45.5902L17.0798 45.4596L15.0173 45.3175L13.1335 45.1732C11.0892 45.0167 9.16562 44.1443 7.70106 42.7095C6.23651 41.2747 5.32484 39.3694 5.12644 37.3288L5.03477 36.3548L4.8629 34.2694C4.68767 32.017 4.59441 29.759 4.58331 27.4998C4.58331 25.2471 4.70248 22.8913 4.8629 20.7303L5.03477 18.6448C5.06456 18.3103 5.09435 17.9871 5.12644 17.6709C5.32476 15.6306 6.2361 13.7256 7.70019 12.2908C9.16428 10.8561 11.0874 9.98349 13.1312 9.8265L15.0127 9.67984L17.0752 9.54005L19.2798 9.40942L21.5806 9.29942C23.5526 9.21379 25.5261 9.16947 27.5 9.1665ZM27.5 13.7498C25.6094 13.7498 23.6637 13.8003 21.7708 13.8782L19.5296 13.9859L17.3777 14.1119L15.3564 14.2494L13.5048 14.3938C12.5316 14.4628 11.6142 14.8742 10.9154 15.555C10.2166 16.2359 9.78132 17.1421 9.68686 18.1132C9.41873 20.8838 9.16665 24.3328 9.16665 27.4998C9.16665 30.6669 9.41873 34.1159 9.68686 36.8865C9.88165 38.8848 11.4675 40.4386 13.5048 40.6059L15.3564 40.748L17.3777 40.8855L19.5296 41.0138L21.7708 41.1215C23.6637 41.1994 25.6094 41.2498 27.5 41.2498C29.3906 41.2498 31.3362 41.1994 33.2291 41.1215L35.4704 41.0138L37.6223 40.8877L39.6435 40.7502L41.4952 40.6059C42.4684 40.5368 43.3857 40.1254 44.0846 39.4446C44.7834 38.7638 45.2186 37.8576 45.3131 36.8865C45.5812 34.1159 45.8333 30.6669 45.8333 27.4998C45.8333 24.3328 45.5812 20.8838 45.3131 18.1132C45.2186 17.1421 44.7834 16.2359 44.0846 15.555C43.3857 14.8742 42.4684 14.4628 41.4952 14.3938L39.6435 14.2517L37.6223 14.1142L35.4704 13.9859L33.2291 13.8782C31.3205 13.7961 29.4104 13.7533 27.5 13.7498ZM22.9166 21.9425C22.9165 21.7186 22.9711 21.4979 23.0756 21.2999C23.1802 21.1018 23.3315 20.9322 23.5165 20.806C23.7015 20.6797 23.9145 20.6005 24.1371 20.5754C24.3597 20.5502 24.585 20.5798 24.7935 20.6615L24.9791 20.7532L34.6041 26.3082C34.7958 26.4188 34.958 26.574 35.0768 26.7606C35.1957 26.9473 35.2677 27.1599 35.2868 27.3803C35.3059 27.6008 35.2716 27.8226 35.1866 28.0269C35.1017 28.2313 34.9687 28.4121 34.7989 28.554L34.6041 28.6915L24.9791 34.2488C24.7852 34.3611 24.5667 34.4243 24.3427 34.4329C24.1188 34.4415 23.8961 34.3952 23.6941 34.298C23.4921 34.2009 23.317 34.0558 23.1838 33.8755C23.0507 33.6952 22.9637 33.485 22.9304 33.2634L22.9166 33.0571V21.9425Z" fill="white"/>
</g>
<defs>
<clipPath id="clip0_74_327">
<rect width="55" height="55" fill="white"/>
</clipPath>
</defs>
</svg>
