<svg width="47" height="48" viewBox="0 0 47 48" fill="none" xmlns="http://www.w3.org/2000/svg">
<path d="M17.5078 24.5044V24.5044C17.5077 24.7635 17.4357 25.0177 17.2996 25.2373C17.1634 25.457 16.9686 25.6336 16.737 25.7456M17.5078 24.5044L16.6281 25.5206M17.5078 24.5044V16.5V16.4998M17.5078 24.5044V16.4998M16.737 25.7456L16.6281 25.5206M16.737 25.7456C16.737 25.7456 16.7371 25.7456 16.7371 25.7456L16.6281 25.5206M16.737 25.7456C16.1249 26.0422 15.6013 26.5014 15.2212 27.076C14.841 27.6506 14.6185 28.3193 14.5773 29.0124C14.5361 29.7055 14.6778 30.397 14.9873 31.0146C15.2967 31.6322 15.7624 32.153 16.3352 32.5232C16.9079 32.8933 17.5669 33.0995 18.2436 33.1207C18.9202 33.1418 19.5902 32.9772 20.1839 32.6436C20.7777 32.31 21.2736 31.8194 21.6193 31.2225C21.9652 30.6255 22.148 29.9442 22.1484 29.2498M16.6281 25.5206C15.9751 25.837 15.4173 26.3265 15.0127 26.9381C14.608 27.5496 14.3715 28.2609 14.3277 28.9976C14.284 29.7343 14.4345 30.4695 14.7638 31.1266C15.093 31.7836 15.5888 32.3384 16.1995 32.7331C16.8102 33.1278 17.5134 33.3479 18.2357 33.3705C18.9581 33.3931 19.6732 33.2174 20.3064 32.8616C20.9396 32.5058 21.4677 31.983 21.8357 31.3478C22.2036 30.7125 22.398 29.9881 22.3984 29.25M22.1484 29.2498V29.25H22.3984M22.1484 29.2498V4.5C22.1484 4.13701 22.2896 3.78785 22.5425 3.5296C22.7955 3.27117 23.1398 3.125 23.5 3.125H30.8438C31.2039 3.125 31.5483 3.27117 31.8013 3.5296C32.0541 3.78778 32.1952 4.13682 32.1953 4.49971M22.1484 29.2498L22.3984 29.25M22.3984 29.25L32.1953 4.49971M32.1953 4.49971C32.1982 6.92067 33.1411 9.24062 34.8158 10.9509M32.1953 4.49971L34.8158 10.9509M17.5078 16.4998C17.5076 16.3007 17.4649 16.104 17.3826 15.9231C17.3002 15.7423 17.1801 15.5815 17.0301 15.4522C16.8802 15.3229 16.7041 15.2282 16.514 15.1752C16.3238 15.1221 16.1246 15.112 15.9301 15.1455L15.9301 15.1455M17.5078 16.4998L15.9301 15.1455M15.9301 15.1455L15.928 15.1459M15.9301 15.1455L15.928 15.1459M15.928 15.1459C9.41326 16.3294 4.52344 22.3955 4.52344 29.25C4.52344 32.9945 5.9799 36.5867 8.57404 39.236C11.1684 41.8855 14.6881 43.375 18.3594 43.375C22.0306 43.375 25.5504 41.8855 28.1447 39.236C30.7389 36.5867 32.1953 32.9945 32.1953 29.25V21.6013C34.9401 23.1 38.0081 23.8823 41.1256 23.875C41.4855 23.8748 41.8296 23.7287 42.0826 23.4704C42.3354 23.2122 42.4766 22.863 42.4766 22.5V15C42.4766 14.637 42.3354 14.2878 42.0826 14.0296C41.8296 13.7712 41.4854 13.6251 41.1253 13.625C38.7595 13.6221 36.4903 12.6611 34.8158 10.9509M15.928 15.1459L34.8158 10.9509M39.7734 21.0684C36.8397 20.8272 34.0244 19.7693 31.6347 18.0069L31.6342 18.0065C31.432 17.8582 31.193 17.7695 30.9437 17.7506C30.6944 17.7318 30.445 17.7838 30.2233 17.9003C30.0016 18.0169 29.8165 18.1933 29.6877 18.4095L29.9025 18.5374L29.6877 18.4095C29.559 18.6257 29.4915 18.8735 29.4922 19.1257M39.7734 21.0684L29.4922 19.1257M39.7734 21.0684V16.2945C37.1746 15.9812 34.753 14.7833 32.9008 12.8917C31.0479 10.9994 29.8762 8.52666 29.5705 5.875H24.8516V29.25V29.25C24.8514 30.4023 24.5567 31.5348 23.9963 32.5357C23.4359 33.5366 22.629 34.3714 21.6549 34.957C20.6807 35.5426 19.5734 35.8587 18.4423 35.8734C17.3112 35.8882 16.1963 35.6011 15.2078 35.041C14.2193 34.4809 13.3917 33.6674 12.8065 32.6814C12.2212 31.6954 11.8983 30.5709 11.8693 29.419C11.8403 28.2671 12.1063 27.1272 12.6411 26.112C13.1543 25.1378 13.8982 24.3105 14.8047 23.7052V18.2759C10.3939 19.8313 7.22656 24.2791 7.22656 29.25C7.22656 32.2685 8.40073 35.1624 10.4891 37.2952C12.5774 39.4279 15.4085 40.625 18.3594 40.625C21.3103 40.625 24.1414 39.4279 26.2296 37.2952C28.318 35.1624 29.4922 32.2685 29.4922 29.25V19.1257M39.7734 21.0684L29.4922 19.1257M29.4922 19.1257V19.125H29.7422L29.4922 19.1257Z" fill="white" stroke="white" stroke-width="0.5"/>
</svg>
