<svg width="46" height="46" viewBox="0 0 46 46" fill="none" xmlns="http://www.w3.org/2000/svg">
<path d="M13.6413 8.73691C13.6486 9.68894 13.289 10.6057 12.6403 11.2888C11.9917 11.972 11.106 12.3668 10.1749 12.3877C9.24567 12.3532 8.36496 11.9551 7.7148 11.2756C7.06464 10.5961 6.69472 9.68728 6.68152 8.73691C6.72167 7.81073 7.10503 6.93485 7.75379 6.28701C8.40255 5.63917 9.26812 5.2679 10.1749 5.24854C11.0789 5.26827 11.9414 5.64047 12.5858 6.28896C13.2302 6.93745 13.6078 7.81318 13.6413 8.73691ZM7.0559 18.8744C7.0559 16.7764 8.3622 17.1041 10.1749 17.1041C11.9875 17.1041 13.2669 16.7764 13.2669 18.8744V39.3146C13.2669 41.4401 11.9606 41.0051 10.1749 41.0051C8.38914 41.0051 7.0559 41.4401 7.0559 39.3146V18.8744ZM18.6537 18.8771C18.6537 17.7043 19.0792 17.2665 19.7445 17.1316C20.4125 16.9939 22.7046 17.1316 23.5045 17.1316C24.3044 17.1316 24.625 18.4669 24.598 19.4746C25.2822 18.5361 26.1904 17.7927 27.2358 17.3155C28.2813 16.8383 29.429 16.6432 30.5693 16.7489C31.6891 16.679 32.8107 16.8506 33.8614 17.2527C34.912 17.6548 35.8682 18.2782 36.6678 19.0826C37.4674 19.887 38.0925 20.8543 38.5026 21.9217C38.9127 22.9892 39.0986 24.1328 39.0481 25.2785V39.232C39.0481 41.3575 37.7688 40.9225 35.9534 40.9225C34.1407 40.9225 32.8614 41.3575 32.8614 39.232V28.3318C32.9083 27.7709 32.8366 27.2062 32.6512 26.6762C32.4657 26.1461 32.1709 25.663 31.7866 25.2597C31.4023 24.8565 30.9376 24.5425 30.4241 24.339C29.9106 24.1356 29.3603 24.0475 28.8105 24.0808C28.2629 24.066 27.7184 24.1705 27.2133 24.3871C26.7081 24.6038 26.2538 24.9278 25.8804 25.3376C25.507 25.7474 25.2231 26.2336 25.0476 26.7641C24.872 27.2945 24.8087 27.8571 24.862 28.4144V39.3146C24.862 41.4401 23.5557 41.0051 21.743 41.0051C19.9304 41.0051 18.651 41.4401 18.651 39.3146V18.8744L18.6537 18.8771Z" stroke="white" stroke-width="3" stroke-linecap="round" stroke-linejoin="round"/>
</svg>
