<svg width="37" height="40" viewBox="0 0 37 40" fill="none" xmlns="http://www.w3.org/2000/svg">
<path d="M15.4681 15.3427C9.82447 15.0705 5.90201 17.0821 3.69976 21.3783C0.397345 27.8231 3.12668 38.3686 14.1456 38.3686C25.1664 38.3686 25.4846 27.7196 25.4846 26.6041V14.1304C27.8421 15.6225 29.8287 16.5215 31.4454 16.8262C33.0641 17.13 34.0914 17.2651 34.5313 17.2306V11.0245C33.0353 10.8443 31.7416 10.5003 30.65 9.99329C29.0122 9.23238 25.7663 7.12117 25.7663 4.02671C25.7683 4.04204 25.7683 3.24375 25.7663 1.63184H18.9449C18.9248 16.7888 18.9248 25.1129 18.9449 26.6041C18.9746 28.8408 17.2391 31.9708 13.722 31.9708C10.203 31.9708 8.46747 28.8437 8.46747 26.8274C8.46747 25.593 8.89201 23.8038 10.6448 22.4785C11.6846 21.6926 13.1269 21.3783 15.4681 21.3783V15.3427Z" stroke="white" stroke-width="3" stroke-linejoin="round"/>
</svg>
