<svg width="47" height="37" viewBox="0 0 47 37" fill="none" xmlns="http://www.w3.org/2000/svg">
<path d="M23.5 0.166504C25.4594 0.166504 27.4691 0.216921 29.4171 0.299421L31.7179 0.40942L33.9202 0.540046L35.9827 0.679837L37.8664 0.826504C39.9107 0.982974 41.8343 1.85534 43.2989 3.29014C44.7635 4.72493 45.6751 6.63024 45.8735 8.67088L45.9652 9.64484L46.1371 11.7303C46.2975 13.8913 46.4166 16.2471 46.4166 18.4998C46.4166 20.7525 46.2975 23.1084 46.1371 25.2694L45.9652 27.3548C45.9354 27.6894 45.9056 28.0125 45.8735 28.3288C45.675 30.3698 44.7631 32.2754 43.298 33.7102C41.833 35.1451 39.9088 36.0172 37.8641 36.1732L35.985 36.3175L33.9225 36.4596L31.7179 36.5902L29.4171 36.7002C27.4458 36.7859 25.4731 36.8302 23.5 36.8332C21.5269 36.8302 19.5541 36.7859 17.5829 36.7002L15.2821 36.5902L13.0798 36.4596L11.0173 36.3175L9.13352 36.1732C7.08924 36.0167 5.16562 35.1443 3.70106 33.7095C2.23651 32.2747 1.32484 30.3694 1.12644 28.3288L1.03477 27.3548L0.862896 25.2694C0.68767 23.017 0.594414 20.759 0.583313 18.4998C0.583313 16.2471 0.70248 13.8913 0.862896 11.7303L1.03477 9.64484C1.06456 9.31025 1.09435 8.98713 1.12644 8.67088C1.32476 6.6306 2.2361 4.72558 3.70019 3.29083C5.16428 1.85608 7.08736 0.983489 9.13123 0.826504L11.0127 0.679837L13.0752 0.540046L15.2798 0.40942L17.5806 0.299421C19.5526 0.213788 21.5261 0.169472 23.5 0.166504ZM23.5 4.74984C21.6094 4.74984 19.6637 4.80025 17.7708 4.87817L15.5296 4.98588L13.3777 5.11192L11.3564 5.24942L9.50477 5.3938C8.53157 5.46284 7.61425 5.87423 6.9154 6.55504C6.21655 7.23585 5.78132 8.14211 5.68686 9.11317C5.41873 11.8838 5.16665 15.3328 5.16665 18.4998C5.16665 21.6669 5.41873 25.1159 5.68686 27.8865C5.88165 29.8848 7.46748 31.4386 9.50477 31.6059L11.3564 31.748L13.3777 31.8855L15.5296 32.0138L17.7708 32.1215C19.6637 32.1994 21.6094 32.2498 23.5 32.2498C25.3906 32.2498 27.3362 32.1994 29.2291 32.1215L31.4704 32.0138L33.6223 31.8877L35.6435 31.7502L37.4952 31.6059C38.4684 31.5368 39.3857 31.1254 40.0846 30.4446C40.7834 29.7638 41.2186 28.8576 41.3131 27.8865C41.5812 25.1159 41.8333 21.6669 41.8333 18.4998C41.8333 15.3328 41.5812 11.8838 41.3131 9.11317C41.2186 8.14211 40.7834 7.23585 40.0846 6.55504C39.3857 5.87423 38.4684 5.46284 37.4952 5.3938L35.6435 5.25171L33.6223 5.11421L31.4704 4.98588L29.2291 4.87817C27.3205 4.79605 25.4104 4.75326 23.5 4.74984ZM18.9166 12.9425C18.9165 12.7186 18.9711 12.4979 19.0756 12.2999C19.1802 12.1018 19.3315 11.9322 19.5165 11.806C19.7015 11.6797 19.9145 11.6005 20.1371 11.5754C20.3597 11.5502 20.585 11.5798 20.7935 11.6615L20.9791 11.7532L30.6041 17.3082C30.7958 17.4188 30.958 17.574 31.0768 17.7606C31.1957 17.9473 31.2677 18.1599 31.2868 18.3803C31.3059 18.6008 31.2716 18.8226 31.1866 19.0269C31.1017 19.2313 30.9687 19.4121 30.7989 19.554L30.6041 19.6915L20.9791 25.2488C20.7852 25.3611 20.5667 25.4243 20.3427 25.4329C20.1188 25.4415 19.8961 25.3952 19.6941 25.298C19.4921 25.2009 19.317 25.0558 19.1838 24.8755C19.0507 24.6952 18.9637 24.485 18.9304 24.2634L18.9166 24.0571V12.9425Z" fill="white"/>
</svg>
