<svg width="36" height="40" viewBox="0 0 36 40" fill="none" xmlns="http://www.w3.org/2000/svg">
<path d="M8.64127 5.73691C8.64857 6.68894 8.28901 7.60566 7.64034 8.28885C6.99166 8.97203 6.106 9.36677 5.17486 9.38772C4.24567 9.35322 3.36496 8.95508 2.7148 8.27561C2.06464 7.59614 1.69472 6.68728 1.68152 5.73691C1.72167 4.81073 2.10503 3.93485 2.75379 3.28701C3.40255 2.63917 4.26812 2.2679 5.17486 2.24854C6.07892 2.26827 6.94143 2.64047 7.58583 3.28896C8.23023 3.93745 8.6078 4.81318 8.64127 5.73691ZM2.0559 15.8744C2.0559 13.7764 3.3622 14.1041 5.17486 14.1041C6.98752 14.1041 8.26689 13.7764 8.26689 15.8744V36.3146C8.26689 38.4401 6.96059 38.0051 5.17486 38.0051C3.38914 38.0051 2.0559 38.4401 2.0559 36.3146V15.8744ZM13.6537 15.8771C13.6537 14.7043 14.0792 14.2665 14.7445 14.1316C15.4125 13.9939 17.7046 14.1316 18.5045 14.1316C19.3044 14.1316 19.625 15.4669 19.598 16.4746C20.2822 15.5361 21.1904 14.7927 22.2358 14.3155C23.2813 13.8383 24.429 13.6432 25.5693 13.7489C26.6891 13.679 27.8107 13.8506 28.8614 14.2527C29.912 14.6548 30.8682 15.2782 31.6678 16.0826C32.4674 16.887 33.0925 17.8543 33.5026 18.9217C33.9127 19.9892 34.0986 21.1328 34.0481 22.2785V36.232C34.0481 38.3575 32.7688 37.9225 30.9534 37.9225C29.1407 37.9225 27.8614 38.3575 27.8614 36.232V25.3318C27.9083 24.7709 27.8366 24.2062 27.6512 23.6762C27.4657 23.1461 27.1709 22.663 26.7866 22.2597C26.4023 21.8565 25.9376 21.5425 25.4241 21.339C24.9106 21.1356 24.3603 21.0475 23.8105 21.0808C23.2629 21.066 22.7184 21.1705 22.2133 21.3871C21.7081 21.6038 21.2538 21.9278 20.8804 22.3376C20.507 22.7474 20.2231 23.2336 20.0476 23.7641C19.872 24.2945 19.8087 24.8571 19.862 25.4144V36.3146C19.862 38.4401 18.5557 38.0051 16.743 38.0051C14.9304 38.0051 13.651 38.4401 13.651 36.3146V15.8744L13.6537 15.8771Z" stroke="white" stroke-width="3" stroke-linecap="round" stroke-linejoin="round"/>
</svg>
